<svg version="1.1" id="Layer_1" xmlns="http://www.w3.org/2000/svg" xmlns:xlink="http://www.w3.org/1999/xlink" x="0px" y="0px"
	 width="100%" viewBox="0 0 121 144" enable-background="new 0 0 121 144" xml:space="preserve">
<path fill="#000000" opacity="1.000000" stroke="none" 
	d="
M122.000000,119.000000 
	C122.000000,127.658455 122.000000,136.316910 122.000000,144.981537 
	C81.713097,144.987686 41.426189,144.987686 1.069639,144.987686 
	C1.069639,97.091988 1.069639,49.183853 1.069639,1.137858 
	C41.333031,1.137858 81.666443,1.137858 122.000000,1.137858 
	C122.000000,17.427006 122.000000,33.744843 121.724945,50.840343 
	C119.197678,49.171413 117.208076,46.399014 114.647430,44.335072 
	C103.999512,35.752567 93.096985,27.486025 82.445061,18.908365 
	C71.107628,9.778677 58.396141,9.697274 47.927113,18.440599 
	C37.305119,27.311670 26.188547,35.588890 15.339744,44.190720 
	C9.560435,48.773037 6.184776,54.853027 6.073119,62.203197 
	C5.837732,77.698189 5.704828,93.207115 6.115648,108.694778 
	C6.350753,117.558113 12.362195,129.678650 23.501728,131.952408 
	C29.680756,133.213638 36.077160,133.716721 42.395878,133.915024 
	C51.924496,134.214050 57.999809,127.979233 57.999863,118.581863 
	C57.999889,113.806664 57.999863,109.031464 57.999863,104.279449 
	C62.612698,104.279449 66.683044,104.279449 71.001335,104.279449 
	C71.001335,109.197533 70.943100,113.839371 71.013687,118.479248 
	C71.152916,127.631760 77.573212,133.978455 86.633606,133.998749 
	C89.799965,134.005844 92.966690,133.969849 96.132668,134.005325 
	C106.737076,134.124130 114.449020,129.248856 119.929993,120.389130 
	C120.328140,119.745529 121.296669,119.454796 122.000000,119.000000 
z"/>
<path fill="#E6E6E6" opacity="1.000000" stroke="none" 
	d="
M122.000000,118.531342 
	C121.296669,119.454796 120.328140,119.745529 119.929993,120.389130 
	C114.449020,129.248856 106.737076,134.124130 96.132668,134.005325 
	C92.966690,133.969849 89.799965,134.005844 86.633606,133.998749 
	C77.573212,133.978455 71.152916,127.631760 71.013687,118.479248 
	C70.943100,113.839371 71.001335,109.197533 71.001335,104.279449 
	C66.683044,104.279449 62.612698,104.279449 57.999863,104.279449 
	C57.999863,109.031464 57.999889,113.806664 57.999863,118.581863 
	C57.999809,127.979233 51.924496,134.214050 42.395878,133.915024 
	C36.077160,133.716721 29.680756,133.213638 23.501728,131.952408 
	C12.362195,129.678650 6.350753,117.558113 6.115648,108.694778 
	C5.704828,93.207115 5.837732,77.698189 6.073119,62.203197 
	C6.184776,54.853027 9.560435,48.773037 15.339744,44.190720 
	C26.188547,35.588890 37.305119,27.311670 47.927113,18.440599 
	C58.396141,9.697274 71.107628,9.778677 82.445061,18.908365 
	C93.096985,27.486025 103.999512,35.752567 114.647430,44.335072 
	C117.208076,46.399014 119.197678,49.171413 121.724945,51.309002 
	C122.000000,73.354225 122.000000,95.708458 122.000000,118.531342 
M34.354130,40.954437 
	C29.769970,44.597897 25.322870,48.433441 20.562614,51.830112 
	C15.919692,55.143059 14.903605,59.604252 14.954365,64.888474 
	C15.088721,78.875427 14.895775,92.865646 15.047003,106.852249 
	C15.115623,113.198769 17.802973,118.211899 23.119413,122.116348 
	C29.274021,126.636391 36.090973,124.489021 42.644257,124.957832 
	C46.909241,125.262955 49.038555,123.003265 49.007843,118.696609 
	C48.974594,114.034103 48.967537,109.370872 49.009090,104.708504 
	C49.063038,98.656021 52.558552,95.086128 58.521980,95.011429 
	C62.850994,94.957199 67.181801,94.956734 71.510780,95.012039 
	C77.024971,95.082481 79.927689,97.984444 79.988640,103.501480 
	C80.043823,108.496674 79.776413,113.506317 80.072807,118.484489 
	C80.306557,122.410614 81.917923,125.374687 86.777016,125.048714 
	C90.424194,124.804031 94.102608,125.071388 97.764198,124.985809 
	C106.176910,124.789162 113.987419,116.866989 113.995964,108.555664 
	C114.011543,93.401749 113.870201,78.246063 114.073982,63.094872 
	C114.142143,58.027004 112.278496,54.121067 108.547043,51.114174 
	C97.398544,42.130478 86.243752,33.147087 74.868729,24.454988 
	C68.575325,19.645950 60.976822,19.495831 55.138729,24.306051 
	C48.475510,29.796135 41.687656,35.134956 34.354130,40.954437 
z"/>
<path fill="#000000" opacity="1.000000" stroke="none" 
	d="
M34.654045,40.746975 
	C41.687656,35.134956 48.475510,29.796135 55.138729,24.306051 
	C60.976822,19.495831 68.575325,19.645950 74.868729,24.454988 
	C86.243752,33.147087 97.398544,42.130478 108.547043,51.114174 
	C112.278496,54.121067 114.142143,58.027004 114.073982,63.094872 
	C113.870201,78.246063 114.011543,93.401749 113.995964,108.555664 
	C113.987419,116.866989 106.176910,124.789162 97.764198,124.985809 
	C94.102608,125.071388 90.424194,124.804031 86.777016,125.048714 
	C81.917923,125.374687 80.306557,122.410614 80.072807,118.484489 
	C79.776413,113.506317 80.043823,108.496674 79.988640,103.501480 
	C79.927689,97.984444 77.024971,95.082481 71.510780,95.012039 
	C67.181801,94.956734 62.850994,94.957199 58.521980,95.011429 
	C52.558552,95.086128 49.063038,98.656021 49.009090,104.708504 
	C48.967537,109.370872 48.974594,114.034103 49.007843,118.696609 
	C49.038555,123.003265 46.909241,125.262955 42.644257,124.957832 
	C36.090973,124.489021 29.274021,126.636391 23.119413,122.116348 
	C17.802973,118.211899 15.115623,113.198769 15.047003,106.852249 
	C14.895775,92.865646 15.088721,78.875427 14.954365,64.888474 
	C14.903605,59.604252 15.919692,55.143059 20.562614,51.830112 
	C25.322870,48.433441 29.769970,44.597897 34.654045,40.746975 
z"/>
</svg>